<svg xmlns="http://www.w3.org/2000/svg" height="512pt" version="1.1" viewBox="-64 0 512 512" width="512pt">
<g id="surface1">
<path d="M 369.636719 281.398438 C 360.734375 272.496094 348.898438 267.59375 336.308594 267.59375 C 323.71875 267.59375 311.882812 272.492188 302.980469 281.398438 L 268.90625 315.476562 C 268.6875 273.089844 234.144531 238.671875 191.710938 238.671875 C 149.273438 238.671875 114.734375 273.089844 114.515625 315.472656 L 80.4375 281.394531 C 71.535156 272.496094 59.699219 267.59375 47.109375 267.59375 C 34.519531 267.59375 22.683594 272.492188 13.785156 281.398438 C -4.59375 299.773438 -4.59375 329.675781 13.78125 348.054688 L 112.445312 446.714844 L 112.445312 497 C 112.445312 505.285156 119.160156 512 127.445312 512 L 255.976562 512 C 264.261719 512 270.976562 505.285156 270.976562 497 L 270.976562 446.714844 L 369.640625 348.054688 C 388.015625 329.675781 388.015625 299.773438 369.636719 281.398438 Z M 191.710938 268.671875 C 217.738281 268.671875 238.914062 289.847656 238.914062 315.878906 C 238.914062 341.90625 217.738281 363.085938 191.710938 363.085938 C 165.679688 363.085938 144.503906 341.90625 144.503906 315.878906 C 144.503906 289.847656 165.679688 268.671875 191.710938 268.671875 Z M 348.425781 326.839844 L 245.371094 429.894531 C 242.558594 432.710938 240.976562 436.523438 240.976562 440.503906 L 240.976562 482 L 142.445312 482 L 142.445312 440.503906 C 142.445312 436.523438 140.863281 432.707031 138.050781 429.894531 L 34.992188 326.839844 C 28.3125 320.160156 28.316406 309.289062 34.996094 302.609375 C 38.230469 299.375 42.535156 297.59375 47.109375 297.59375 C 51.6875 297.59375 55.988281 299.375 59.226562 302.609375 L 145.304688 388.691406 C 148.117188 391.503906 151.933594 393.085938 155.910156 393.085938 L 227.507812 393.085938 C 231.488281 393.085938 235.304688 391.503906 238.117188 388.691406 L 324.195312 302.609375 C 327.433594 299.375 331.734375 297.59375 336.3125 297.59375 C 340.886719 297.59375 345.191406 299.371094 348.425781 302.609375 C 355.105469 309.289062 355.105469 320.160156 348.425781 326.839844 Z M 348.425781 326.839844 " style=" stroke:none;fill-rule:nonzero;fill:rgb(0%,0%,0%);fill-opacity:1;" />
<path d="M 125.386719 142.136719 L 114.863281 203.46875 C 113.898438 209.097656 116.210938 214.785156 120.828125 218.140625 C 123.441406 220.039062 126.539062 221.007812 129.648438 221.007812 C 132.035156 221.007812 134.429688 220.4375 136.628906 219.28125 L 191.710938 190.324219 L 246.792969 219.28125 C 248.984375 220.4375 251.382812 221.007812 253.769531 221.007812 C 253.785156 221.007812 253.800781 221.007812 253.8125 221.007812 C 262.085938 220.992188 268.792969 214.28125 268.792969 206.007812 C 268.792969 204.855469 268.664062 203.734375 268.417969 202.652344 L 258.035156 142.136719 L 302.597656 98.699219 C 306.6875 94.714844 308.15625 88.753906 306.394531 83.320312 C 304.628906 77.890625 299.933594 73.933594 294.285156 73.113281 L 232.703125 64.164062 L 205.160156 8.359375 C 202.632812 3.242188 197.417969 0 191.710938 0 C 186 0 180.785156 3.242188 178.257812 8.359375 L 150.71875 64.164062 L 89.136719 73.113281 C 83.484375 73.933594 78.792969 77.890625 77.027344 83.320312 C 75.261719 88.753906 76.734375 94.714844 80.824219 98.699219 Z M 162.835938 92.71875 C 167.722656 92.007812 171.941406 88.941406 174.128906 84.515625 L 191.710938 48.894531 L 209.289062 84.515625 C 211.472656 88.941406 215.695312 92.007812 220.582031 92.71875 L 259.894531 98.433594 L 231.449219 126.160156 C 227.914062 129.605469 226.300781 134.570312 227.132812 139.4375 L 233.847656 178.585938 L 198.691406 160.101562 C 196.503906 158.949219 194.105469 158.375 191.710938 158.375 C 189.3125 158.375 186.914062 158.949219 184.730469 160.101562 L 149.570312 178.585938 L 156.289062 139.4375 C 157.125 134.570312 155.511719 129.605469 151.976562 126.160156 L 123.527344 98.429688 Z M 162.835938 92.71875 " style=" stroke:none;fill-rule:nonzero;fill:rgb(0%,0%,0%);fill-opacity:1;" />
</g>
</svg>